<svg xmlns="http://www.w3.org/2000/svg" xmlns:xlink="http://www.w3.org/1999/xlink" id="Layer_1" x="0" y="0" preserveAspectRatio="xMinYMid meet" version="1.1" viewBox="0 0 16 16" xml:space="preserve" style="enable-background:new 0 0 16 16"><style type="text/css">.st0{fill:orange}</style><path d="M9.1,12.9v-1.7c0-0.1,0-0.2-0.1-0.2s-0.1-0.1-0.2-0.1H7.2c-0.1,0-0.1,0-0.2,0.1s-0.1,0.1-0.1,0.2v1.7	c0,0.1,0,0.2,0.1,0.2s0.1,0.1,0.2,0.1h1.7c0.1,0,0.1,0,0.2-0.1S9.1,13,9.1,12.9z M9.1,9.5l0.2-4.1c0-0.1,0-0.1-0.1-0.2	C9.1,5.2,9,5.2,9,5.2H7c-0.1,0-0.1,0-0.2,0.1c-0.1,0-0.1,0.1-0.1,0.2l0.2,4.1c0,0.1,0,0.1,0.1,0.1c0.1,0,0.1,0.1,0.2,0.1h1.6	c0.1,0,0.2,0,0.2-0.1C9.1,9.7,9.1,9.6,9.1,9.5z M9,1.3l6.8,12.5c0.2,0.4,0.2,0.7,0,1.1c-0.1,0.2-0.2,0.3-0.4,0.4s-0.4,0.2-0.6,0.2	H1.2c-0.2,0-0.4-0.1-0.6-0.2S0.3,15,0.2,14.9c-0.2-0.4-0.2-0.7,0-1.1L7,1.3c0.1-0.2,0.2-0.3,0.4-0.4S7.8,0.7,8,0.7s0.4,0.1,0.6,0.2	C8.8,0.9,8.9,1.1,9,1.3z" class="st0"/></svg>